<?xml version="1.0" ?><!DOCTYPE svg  PUBLIC '-//W3C//DTD SVG 1.1//EN'  'http://www.w3.org/Graphics/SVG/1.1/DTD/svg11.dtd'><svg color="currentColor" enable-background="new 0 0 96 96" height="96px" id="align_right" version="1.1" viewBox="0 0 96 96" width="96px" xml:space="preserve" xmlns="http://www.w3.org/2000/svg" xmlns:xlink="http://www.w3.org/1999/xlink"><path d="M88,24c0,2.209-1.791,4-4,4H12c-2.209,0-4-1.791-4-4l0,0c0-2.209,1.791-4,4-4h72C86.209,20,88,21.791,88,24L88,24z"/><path d="M88,40c0,2.209-1.791,4-4,4H28c-2.209,0-4-1.791-4-4l0,0c0-2.209,1.791-4,4-4h56C86.209,36,88,37.791,88,40L88,40z"/><path d="M88,56c0,2.209-1.791,4-4,4H12c-2.209,0-4-1.791-4-4l0,0c0-2.209,1.791-4,4-4h72C86.209,52,88,53.791,88,56L88,56z"/><path d="M88,72c0,2.209-1.791,4-4,4H28c-2.209,0-4-1.791-4-4l0,0c0-2.209,1.791-4,4-4h56C86.209,68,88,69.791,88,72L88,72z"/></svg>
